<svg width="21" height="20" viewBox="0 0 21 20" fill="none" xmlns="http://www.w3.org/2000/svg">
<path d="M18 5.07407H13.8333V3.71922C13.8137 3.19985 13.5835 2.70922 13.1929 2.35487C12.8024 2.00053 12.2835 1.81139 11.75 1.82892H9.24996C8.71642 1.81139 8.19751 2.00053 7.80698 2.35487C7.41646 2.70922 7.18618 3.19985 7.16663 3.71922V5.07407H2.99996C2.77895 5.07407 2.56698 5.15955 2.4107 5.31169C2.25442 5.46384 2.16663 5.67019 2.16663 5.88536C2.16663 6.10053 2.25442 6.30688 2.4107 6.45903C2.56698 6.61117 2.77895 6.69665 2.99996 6.69665H3.83329V15.6208C3.83329 16.2663 4.09668 16.8854 4.56553 17.3418C5.03437 17.7983 5.67025 18.0547 6.33329 18.0547H14.6666C15.3297 18.0547 15.9656 17.7983 16.4344 17.3418C16.9032 16.8854 17.1666 16.2663 17.1666 15.6208V6.69665H18C18.221 6.69665 18.4329 6.61117 18.5892 6.45903C18.7455 6.30688 18.8333 6.10053 18.8333 5.88536C18.8333 5.67019 18.7455 5.46384 18.5892 5.31169C18.4329 5.15955 18.221 5.07407 18 5.07407ZM8.83329 3.71922C8.83329 3.58942 9.00829 3.4515 9.24996 3.4515H11.75C11.9916 3.4515 12.1666 3.58942 12.1666 3.71922V5.07407H8.83329V3.71922Z" fill="black"/>
</svg>
