<svg width="21" height="20" viewBox="0 0 21 20" fill="none" xmlns="http://www.w3.org/2000/svg">
<path d="M16.3335 16.4321H4.66683C4.44582 16.4321 4.23385 16.5176 4.07757 16.6697C3.92129 16.8219 3.8335 17.0282 3.8335 17.2434C3.8335 17.4586 3.92129 17.6649 4.07757 17.8171C4.23385 17.9692 4.44582 18.0547 4.66683 18.0547H16.3335C16.5545 18.0547 16.7665 17.9692 16.9228 17.8171C17.079 17.6649 17.1668 17.4586 17.1668 17.2434C17.1668 17.0282 17.079 16.8219 16.9228 16.6697C16.7665 16.5176 16.5545 16.4321 16.3335 16.4321Z" fill="black"/>
<path d="M4.66667 14.8095H4.74167L8.21667 14.5012C8.59733 14.4643 8.95337 14.301 9.225 14.0388L16.725 6.73719C17.0161 6.4378 17.1734 6.03828 17.1625 5.62616C17.1516 5.21405 16.9733 4.82297 16.6667 4.5386L14.3833 2.31568C14.0853 2.04316 13.6948 1.8868 13.2861 1.87632C12.8774 1.86585 12.479 2.00201 12.1667 2.25889L4.66667 9.56047C4.39731 9.82492 4.22959 10.1715 4.19167 10.5421L3.83334 13.9252C3.82211 14.044 3.83795 14.1638 3.87972 14.276C3.92149 14.3882 3.98817 14.49 4.075 14.5742C4.15287 14.6494 4.24522 14.7089 4.34675 14.7493C4.44828 14.7897 4.557 14.8101 4.66667 14.8095ZM13.225 3.45148L15.5 5.66629L13.8333 7.2483L11.6 5.07405L13.225 3.45148ZM5.80834 10.68L10.5 6.14495L12.75 8.33543L8.08334 12.8786L5.58334 13.1058L5.80834 10.68Z" fill="black"/>
</svg>
