<svg width="50" height="50" viewBox="0 0 50 50" fill="none" xmlns="http://www.w3.org/2000/svg">
<path d="M45.5976 23.8949C44.2749 21.6007 36.9995 10.0883 24.6397 10.4604C13.21 10.7497 6.59601 20.7947 4.79784 23.8949C4.61644 24.2091 4.52094 24.5656 4.52094 24.9284C4.52094 25.2912 4.61644 25.6476 4.79784 25.9618C6.09996 28.2147 13.0653 39.3964 25.2391 39.3964H25.7558C37.1855 39.107 43.8201 29.0621 45.5976 25.9618C45.779 25.6476 45.8745 25.2912 45.8745 24.9284C45.8745 24.5656 45.779 24.2091 45.5976 23.8949ZM25.6525 35.2627C16.7443 35.4693 10.9364 27.8426 9.11758 24.9284C11.1844 21.6007 16.5789 14.8008 24.8464 14.5941C33.7132 14.3667 39.5417 22.0141 41.3812 24.9284C39.2524 28.256 33.9199 35.056 25.6525 35.2627Z" fill="#B5B5B5"/>
<path d="M25.1977 17.6944C23.7669 17.6944 22.3683 18.1186 21.1787 18.9135C19.9891 19.7084 19.0619 20.8382 18.5143 22.16C17.9668 23.4819 17.8236 24.9364 18.1027 26.3397C18.3818 27.7429 19.0708 29.0319 20.0825 30.0436C21.0942 31.0553 22.3831 31.7443 23.7864 32.0234C25.1897 32.3025 26.6442 32.1592 27.966 31.6117C29.2879 31.0642 30.4177 30.137 31.2126 28.9474C32.0074 27.7577 32.4317 26.3591 32.4317 24.9284C32.4317 23.0098 31.6695 21.1698 30.3129 19.8132C28.9563 18.4565 27.1163 17.6944 25.1977 17.6944ZM25.1977 28.0287C24.5845 28.0287 23.9851 27.8468 23.4753 27.5062C22.9654 27.1655 22.5681 26.6813 22.3334 26.1148C22.0987 25.5483 22.0374 24.9249 22.157 24.3235C22.2766 23.7221 22.5719 23.1697 23.0055 22.7361C23.439 22.3026 23.9915 22.0073 24.5929 21.8877C25.1943 21.768 25.8176 21.8294 26.3841 22.0641C26.9506 22.2987 27.4348 22.6961 27.7755 23.2059C28.1162 23.7158 28.298 24.3152 28.298 24.9284C28.298 25.7506 27.9713 26.5392 27.3899 27.1206C26.8085 27.702 26.0199 28.0287 25.1977 28.0287Z" fill="#B5B5B5"/>
</svg>
